<svg id="visual" viewBox="0 0 2160 1360" width="2160" height="1360" xmlns="http://www.w3.org/2000/svg" xmlns:xlink="http://www.w3.org/1999/xlink" version="1.1"><rect x="0" y="0" width="2160" height="1360" fill="#A8A89E"></rect><path d="M0 646L60 657.5C120 669 240 692 360 682.3C480 672.7 600 630.3 720 615.2C840 600 960 612 1080 640C1200 668 1320 712 1440 740.8C1560 769.7 1680 783.3 1800 748.3C1920 713.3 2040 629.7 2100 587.8L2160 546L2160 1361L2100 1361C2040 1361 1920 1361 1800 1361C1680 1361 1560 1361 1440 1361C1320 1361 1200 1361 1080 1361C960 1361 840 1361 720 1361C600 1361 480 1361 360 1361C240 1361 120 1361 60 1361L0 1361Z" fill="#020508" stroke-linecap="round" stroke-linejoin="miter"></path></svg>